<?xml version="1.0" encoding="UTF-8" standalone="no"?>
<!-- Generator: Adobe Illustrator 14.0.0, SVG Export Plug-In . SVG Version: 6.00 Build 43363)  -->

<svg
   xmlns:dc="http://purl.org/dc/elements/1.1/"
   xmlns:cc="http://creativecommons.org/ns#"
   xmlns:rdf="http://www.w3.org/1999/02/22-rdf-syntax-ns#"
   xmlns:svg="http://www.w3.org/2000/svg"
   xmlns="http://www.w3.org/2000/svg"
   xmlns:sodipodi="http://sodipodi.sourceforge.net/DTD/sodipodi-0.dtd"
   xmlns:inkscape="http://www.inkscape.org/namespaces/inkscape"
   version="1.1"
   id="Layer_1"
   x="0px"
   y="0px"
   width="667"
   height="440"
   viewBox="0 0 667 440.00001"
   enable-background="new 0 0 782.362 1128.189"
   xml:space="preserve"
   inkscape:version="0.47 r22583"
   sodipodi:docname="H&amp;M logo.svg"><metadata
   id="metadata35"><rdf:RDF><cc:Work
       rdf:about=""><dc:format>image/svg+xml</dc:format><dc:type
         rdf:resource="http://purl.org/dc/dcmitype/StillImage" /></cc:Work></rdf:RDF></metadata><defs
   id="defs33"><inkscape:perspective
   sodipodi:type="inkscape:persp3d"
   inkscape:vp_x="0 : 564.09448 : 1"
   inkscape:vp_y="0 : 1000 : 0"
   inkscape:vp_z="782.362 : 564.09448 : 1"
   inkscape:persp3d-origin="391.181 : 376.06299 : 1"
   id="perspective37" />
	<defs
   id="defs19">
		<rect
   height="101.001"
   width="153.11"
   y="933.771"
   x="561.28601"
   id="SVGID_3_" />
	</defs>
	
	
	

	<defs
   id="defs5">
		<rect
   height="101.001"
   width="153.11"
   y="933.771"
   x="561.28601"
   id="SVGID_1_" />
	</defs>
	
	
	
</defs><sodipodi:namedview
   pagecolor="#ffffff"
   bordercolor="#666666"
   borderopacity="1"
   objecttolerance="10"
   gridtolerance="10"
   guidetolerance="10"
   inkscape:pageopacity="0"
   inkscape:pageshadow="2"
   inkscape:window-width="730"
   inkscape:window-height="900"
   id="namedview31"
   showgrid="false"
   inkscape:zoom="0.47226423"
   inkscape:cx="333.49974"
   inkscape:cy="220"
   inkscape:window-x="0"
   inkscape:window-y="0"
   inkscape:window-maximized="0"
   inkscape:current-layer="Layer_1" />

		
	


		
	
<path
   style="fill:#e31f26"
   id="path11"
   d="m 468.72924,13.375643 c 24.21698,-11.9364141 36.22745,-10.3463443 36.49319,1.707691 0.34415,15.687236 -1.98215,36.484478 -3.64192,51.587962 -8.98716,81.925624 -24.02094,148.865384 -25.16231,232.995314 39.56442,-102.4397 72.76421,-173.63997 115.47827,-261.346475 13.57877,-27.898101 22.23049,-22.709682 33.37404,-27.671571 43.42851,-19.3291489 45.05343,-7.4537238 39.38146,16.144654 -21.07169,87.562742 -74.9206,363.180642 -83.16718,405.620262 -2.396,12.27621 -15.72209,7.07472 -19.19846,2.27402 -15.452,-21.37228 -32.86871,-21.70772 -30.9127,-35.92687 9.68418,-70.75592 44.56116,-248.28612 53.65287,-290.12456 -46.38211,95.03825 -94.4545,213.84042 -119.1289,281.19839 -5.24069,14.30191 -14.76804,13.25639 -20.7014,2.79242 -8.35113,-14.7027 -24.55242,-22.2087 -27.22722,-39.57749 -8.47747,-55.23858 9.68854,-160.52298 12.21522,-227.13166 -25.23201,72.75985 -67.61063,214.02775 -86.16871,277.844 -7.68461,26.41258 -33.15186,22.09979 -26.38209,-3.63756 28.21612,-107.11407 88.95678,-296.54583 115.27352,-364.670517 6.17732,-16.000894 22.3786,-15.451993 35.82232,-22.07801"
   clip-path="none" /><path
   style="fill:#e31f26"
   id="path13"
   d="m 314.90197,0.2063803 c -8.20738,-1.9777854 -31.93645,10.8516817 -46.53024,13.3522297 -4.6308,0.792857 -9.07864,5.728607 -10.59901,9.231117 -23.37185,53.665944 -44.30413,104.822623 -62.444,151.435633 -23.19759,3.96428 -50.35947,9.17448 -80.70148,16.00089 C 136.32189,134.43441 158.31277,79.422349 179.75475,26.462135 190.30584,0.40677265 162.52536,-2.0545682 151.74338,24.362372 137.77255,58.642533 111.54729,122.88135 82.529608,197.78017 c -21.328716,5.22327 -43.920776,11.20019 -67.57143,18.03096 -17.1727534,4.95317 -17.9133339,9.5317 -10.4726787,19.83013 4.1298251,5.73296 12.5724417,5.16228 16.4408857,9.24854 10.02833,10.58594 16.092377,23.25423 34.040562,25.17102 -16.027032,42.7707 -32.014857,86.87444 -46.491026,129.34455 -9.0873576,26.6609 16.815532,32.11506 26.769805,3.90765 16.0401,-45.47599 32.968898,-91.50524 50.333331,-137.39074 14.463103,-3.36746 49.505623,-10.91267 81.895123,-17.93076 -25.71556,70.38128 -42.61822,123.83812 -48.98286,149.85863 -1.22413,5.0011 0.819,7.78045 1.86017,9.82359 8.65607,12.616 16.88959,13.13005 28.05493,28.7258 3.04073,4.25616 13.14748,6.54761 16.61078,-3.91636 23.77263,-71.87987 48.24228,-139.32061 71.0783,-199.77811 9.48378,-2.08233 26.54763,-6.19473 37.00288,-21.77742 18.55372,-27.66286 23.90768,-22.05623 28.35552,-30.45964 5.58049,-10.5598 1.89937,-20.47051 -17.93512,-18.02224 0,0 -7.48857,0.53583 -21.29822,2.10848 C 284.1853,107.98697 303.40119,60.014785 317.2544,23.495457 321.95926,11.119051 322.58222,2.0578314 314.90197,0.2063803"
   clip-path="none" /><path
   style="fill:#e31f26"
   d="m 282.44712,367.02458 c 5.15792,12.92967 21.14575,9.0133 15.05556,-6.59116 -6.20345,-15.89199 -21.59009,-63.73784 -25.64151,-79.15063 -5.47593,-20.77546 18.30105,-15.09041 6.27316,-1.51165 -10.34199,11.67503 -17.27295,16.35376 -36.38428,38.5581 -18.44481,21.43327 -13.42194,49.2486 6.32978,55.39106 22.2784,6.92661 41.9125,-17.63017 54.0798,-35.65241 11.76651,-17.44721 0.39643,-27.68029 -11.51385,-17.36008 -7.64976,6.62602 -16.4496,16.81118 -25.44983,22.3089 -7.20977,4.41299 -12.96887,-0.33109 -3.24984,-13.6746 11.23504,-15.452 23.83362,-28.39037 33.21721,-42.97981 19.10262,-29.74519 -18.6757,-46.90052 -34.9554,-27.57137 -8.67786,10.29842 -6.51275,20.41388 -4.11675,29.08739 3.83359,13.90548 18.04402,58.27496 26.35595,79.14626"
   id="path15"
   clip-path="none" /><path
   style="fill:#e31f26"
   id="path25"
   d="m 468.72924,13.375643 c 24.21698,-11.9364141 36.22745,-10.3463443 36.49319,1.707691 0.34415,15.687236 -1.98215,36.484478 -3.64192,51.587962 -8.98716,81.925624 -24.02094,148.865384 -25.16231,232.995314 39.56442,-102.4397 72.76421,-173.63997 115.47827,-261.346475 13.57877,-27.898101 22.23049,-22.709682 33.37404,-27.671571 43.42851,-19.3291489 45.05343,-7.4537238 39.38146,16.144654 -21.07169,87.562742 -74.9206,363.180642 -83.16718,405.620262 -2.396,12.27621 -15.72209,7.07472 -19.19846,2.27402 -15.452,-21.37228 -32.86871,-21.70772 -30.9127,-35.92687 9.68418,-70.75592 44.56116,-248.28612 53.65287,-290.12456 -46.38211,95.03825 -94.4545,213.84042 -119.1289,281.19839 -5.24069,14.30191 -14.76804,13.25639 -20.7014,2.79242 -8.35113,-14.7027 -24.55242,-22.2087 -27.22722,-39.57749 -8.47747,-55.23858 9.68854,-160.52298 12.21522,-227.13166 -25.23201,72.75985 -67.61063,214.02775 -86.16871,277.844 -7.68461,26.41258 -33.15186,22.09979 -26.38209,-3.63756 28.21612,-107.11407 88.95678,-296.54583 115.27352,-364.670517 6.17732,-16.000894 22.3786,-15.451993 35.82232,-22.07801"
   clip-path="none" /><path
   style="fill:#e31f26"
   id="path27"
   d="m 314.90197,0.2063803 c -8.20738,-1.9777854 -31.93645,10.8516817 -46.53024,13.3522297 -4.6308,0.792857 -9.07864,5.728607 -10.59901,9.231117 -23.37185,53.665944 -44.30413,104.822623 -62.444,151.435633 -23.19759,3.96428 -50.35947,9.17448 -80.70148,16.00089 C 136.32189,134.43441 158.31277,79.422349 179.75475,26.462135 190.30584,0.40677265 162.52536,-2.0545682 151.74338,24.362372 137.77255,58.642533 111.54729,122.88135 82.529608,197.78017 c -21.328716,5.22327 -43.920776,11.20019 -67.57143,18.03096 -17.1727534,4.95317 -17.9133339,9.5317 -10.4726787,19.83013 4.1298251,5.73296 12.5724417,5.16228 16.4408857,9.24854 10.02833,10.58594 16.092377,23.25423 34.040562,25.17102 -16.027032,42.7707 -32.014857,86.87444 -46.491026,129.34455 -9.0873576,26.6609 16.815532,32.11506 26.769805,3.90765 16.0401,-45.47599 32.968898,-91.50524 50.333331,-137.39074 14.463103,-3.36746 49.505623,-10.91267 81.895123,-17.93076 -25.71556,70.38128 -42.61822,123.83812 -48.98286,149.85863 -1.22413,5.0011 0.819,7.78045 1.86017,9.82359 8.65607,12.616 16.88959,13.13005 28.05493,28.7258 3.04073,4.25616 13.14748,6.54761 16.61078,-3.91636 23.77263,-71.87987 48.24228,-139.32061 71.0783,-199.77811 9.48378,-2.08233 26.54763,-6.19473 37.00288,-21.77742 18.55372,-27.66286 23.90768,-22.05623 28.35552,-30.45964 5.58049,-10.5598 1.89937,-20.47051 -17.93512,-18.02224 0,0 -7.48857,0.53583 -21.29822,2.10848 C 284.1853,107.98697 303.40119,60.014785 317.2544,23.495457 321.95926,11.119051 322.58222,2.0578314 314.90197,0.2063803"
   clip-path="none" /><path
   style="fill:#e31f26"
   d="m 282.44712,367.02458 c 5.15792,12.92967 21.14575,9.0133 15.05556,-6.59116 -6.20345,-15.89199 -21.59009,-63.73784 -25.64151,-79.15063 -5.47593,-20.77546 18.30105,-15.09041 6.27316,-1.51165 -10.34199,11.67503 -17.27295,16.35376 -36.38428,38.5581 -18.44481,21.43327 -13.42194,49.2486 6.32978,55.39106 22.2784,6.92661 41.9125,-17.63017 54.0798,-35.65241 11.76651,-17.44721 0.39643,-27.68029 -11.51385,-17.36008 -7.64976,6.62602 -16.4496,16.81118 -25.44983,22.3089 -7.20977,4.41299 -12.96887,-0.33109 -3.24984,-13.6746 11.23504,-15.452 23.83362,-28.39037 33.21721,-42.97981 19.10262,-29.74519 -18.6757,-46.90052 -34.9554,-27.57137 -8.67786,10.29842 -6.51275,20.41388 -4.11675,29.08739 3.83359,13.90548 18.04402,58.27496 26.35595,79.14626"
   id="path29"
   clip-path="none" />
</svg>