<?xml version="1.0" encoding="UTF-8" standalone="no"?>
<svg width="71px" height="32px" viewBox="0 0 71 32" version="1.1" xmlns="http://www.w3.org/2000/svg" xmlns:xlink="http://www.w3.org/1999/xlink">
    <!-- Generator: sketchtool 40.1 (33804) - http://www.bohemiancoding.com/sketch -->
    <title>D08F5717-3F2B-46BF-80CF-83A90B7DFF72</title>
    <desc>Created with sketchtool.</desc>
    <defs>
        <polygon id="path-1" points="7.80487805e-05 31.2195122 21.8670049 31.2195122 21.8670049 0.469229268 7.80487805e-05 0.469229268"></polygon>
    </defs>
    <g id="Page-1" stroke="none" stroke-width="1" fill="none" fill-rule="evenodd">
        <g id="Kuluttaja" transform="translate(-135.000000, -14.000000)">
            <g id="Page-1" transform="translate(135.000000, 14.000000)">
                <g id="Group-3" transform="translate(0.000000, 0.311337)">
                    <mask id="mask-2" fill="white">
                        <use xlink:href="#path-1"></use>
                    </mask>
                    <g id="Clip-2"></g>
                    <path d="M11.1345171,8.48171707 C11.1345171,6.22298537 12.2084683,4.4739122 13.638322,4.39274146 C14.6599805,4.99371707 15.2445659,6.2721561 15.2445659,7.90571707 C15.2156878,9.55644878 14.5733463,11.2446439 13.5259317,12.4200585 L13.4525659,12.5020098 L13.5306146,12.5800585 C13.8974439,12.9476683 14.3298341,13.1334244 14.8152976,13.1334244 C15.8338341,13.1334244 16.8742244,12.2264976 17.4650537,10.819278 C17.7272976,10.151961 17.9715902,9.36600976 18.2338341,8.34747317 L18.2791024,8.17654634 C18.8956878,5.83898537 19.5341268,3.42181463 21.7827122,2.21908293 L21.8670049,2.17381463 L21.8389073,2.08171707 C21.5485659,1.13186341 20.7048585,0.469229268 19.7870049,0.469229268 C17.8701268,0.469229268 17.6484683,3.29537561 17.6484683,5.42142439 C17.6484683,5.72035122 17.6547122,6.01771707 17.6625171,6.3104 C16.9382244,4.35449756 15.2508098,3.25557073 12.9031024,3.25557073 C10.5491512,3.25557073 8.11402927,5.45576585 8.11402927,9.13732683 C8.11402927,11.7995707 8.89841951,13.7211317 9.72885854,15.7550829 C10.5733463,17.8233756 11.4467122,19.9619122 11.4467122,22.9886439 C11.4467122,25.7507902 9.51032195,29.2700098 6.91441951,29.863961 C4.57841951,29.5291317 3.18446829,27.5732293 3.18446829,24.6276683 C3.18446829,21.4362537 4.6752,18.2612293 6.38446829,17.7859122 C6.98934634,18.1363512 7.32183415,18.9043512 7.32183415,19.9556683 C7.32183415,21.7976195 6.38837073,24.1734244 5.19812683,25.3644488 L5.13256585,25.4292293 L5.1809561,25.5080585 C5.44007805,25.9303024 5.99188293,26.1925463 6.61939512,26.1925463 C8.93822439,26.1925463 10.1511024,23.7012293 10.1511024,21.2403512 C10.1511024,18.855961 8.95773659,16.451278 6.29080976,16.451278 C2.40476098,16.451278 7.80487805e-05,20.5816195 7.80487805e-05,24.4091317 C7.80487805e-05,28.6737171 2.52573659,31.2196683 6.75598049,31.2196683 C11.8182244,31.2196683 14.4679805,26.8177171 14.4679805,22.4696195 C14.4679805,19.3390829 13.5610537,17.0296195 12.6837854,14.7958634 C11.8869073,12.7665951 11.1345171,10.8497171 11.1345171,8.48171707" id="Fill-1" fill="#FFFFFF" mask="url(#mask-2)"></path>
                </g>
                <path d="M46.566322,26.6097171 C45.9809561,25.6403512 45.8529561,24.4212293 45.8529561,23.545522 C45.8529561,21.3109854 46.6685659,18.8485463 47.6090537,18.2108878 C48.1998829,18.4286439 48.4878829,18.905522 48.4878829,19.6664976 C48.4878829,21.4124488 47.7713951,23.9950829 46.566322,26.6097171 L46.566322,26.6097171 Z M44.4238829,30.1851317 C43.8689561,29.9447415 43.7495415,29.1377171 43.7495415,28.4906927 C43.7495415,27.2871805 44.1179317,25.5974244 44.7462244,23.8858146 C44.8398829,25.1853268 45.1419317,26.7556683 45.9801756,27.8218146 C45.440078,28.8653268 44.8531512,29.7566439 44.4238829,30.1851317 L44.4238829,30.1851317 Z M34.5655415,30.1937171 C34.3454439,29.9985951 34.2158829,29.5724488 34.2158829,29.0370341 C34.2158829,27.1264 35.9953951,21.9720585 37.7046634,18.9024 C37.9911024,19.1693268 38.4008585,19.4073756 38.9987122,19.6579122 C38.4102244,24.0309854 35.6254439,29.8596683 34.5655415,30.1937171 L34.5655415,30.1937171 Z M66.246322,24.5546927 C67.745639,21.5880585 68.4441756,19.8179122 68.4441756,18.9835707 C68.4441756,17.6341073 67.0018341,17.145522 66.0324683,17.145522 C64.5003707,17.145522 62.8902244,19.6337171 61.1310049,22.903961 C62.1089561,20.3049366 63.2601756,17.4553756 64.6923707,14.0844488 C64.9046634,13.587278 65.1372488,13.075278 65.3628098,12.5796683 C65.9021268,11.3925463 66.368078,10.3677659 66.368078,9.94083902 C66.368078,9.13771707 65.5204683,8.1566439 64.5300293,8.1566439 C64.2053463,8.1566439 63.873639,8.19332683 63.5224195,8.23157073 C63.0002732,8.28776585 62.4071024,8.35332683 61.6664195,8.32054634 L61.5852488,8.31742439 L61.5540293,8.39157073 C61.4775415,8.56796098 61.408078,8.75918049 61.408078,8.96679024 C61.444761,9.40620488 61.7819317,9.59274146 62.5351024,9.59274146 C62.8917854,9.59274146 63.2992,9.54513171 63.7479805,9.45147317 C62.8761756,11.3121561 61.2121756,15.2692293 59.4482732,19.6782049 L59.1462244,20.4469854 C58.9472,20.951961 58.7458341,21.4663024 58.5444683,21.9790829 C57.1512976,25.0565463 55.1735415,28.8184976 53.4057366,29.9517659 C53.2270049,29.7379122 53.1528585,29.4631805 53.1731512,29.0916683 C53.1731512,28.6733268 53.3058341,28.0871805 53.5766634,27.3012293 C54.8215415,23.8772293 55.8939317,21.0588878 56.8523707,18.6877659 C58.400078,18.6323512 59.2929561,18.4840585 59.2929561,17.9174244 C59.2929561,17.7987902 59.2508098,17.6684488 59.1672976,17.529522 L59.1337366,17.4725463 L59.0673951,17.4725463 C58.7739317,17.4725463 58.4742244,17.4663024 58.1674927,17.459278 C57.9052488,17.4538146 57.638322,17.4483512 57.3651512,17.4460098 C57.9232,16.2471805 58.1729561,15.5463024 58.1729561,15.1857171 C58.1729561,14.8930341 58.0722732,14.6471805 57.8732488,14.4551805 C57.5290537,14.1234732 56.8984195,13.9704976 56.0032,14.003278 L55.9337366,14.0064 L55.9025171,14.0680585 C55.5934439,14.6862049 55.0299317,16.0138146 54.4266146,17.4452293 C53.9926634,17.4452293 53.5470049,17.4467902 53.1302244,17.4733268 C52.7431024,17.5006439 52.5300293,17.7363512 52.5300293,18.1367415 C52.5300293,18.2304 52.5315902,18.265522 52.5604683,18.3833756 L52.5799805,18.4606439 L52.6588098,18.4707902 C53.1161756,18.5316683 53.540761,18.5745951 53.9512976,18.5995707 C53.5454439,19.5907902 52.7977366,21.4475707 52.0929561,23.3636683 C50.918322,25.6520585 49.8030049,27.129522 48.7243707,27.8249366 C50.1940293,25.1783024 51.3171512,21.881522 51.3171512,20.1582049 C51.3171512,18.2545951 49.7155902,17.1174244 48.1678829,17.1174244 C47.0026146,17.1174244 46.1152,17.6013268 45.5282732,18.5558634 C45.3948098,18.4973268 45.2746146,18.483278 45.1895415,18.483278 C44.8180293,18.483278 44.5019317,18.7814244 44.2178341,19.1630829 C43.9064195,19.1810341 43.5918829,19.1943024 43.2789073,19.1943024 C42.6997854,19.1943024 42.214322,19.1630829 41.7991024,19.0998634 C41.5961756,17.7613268 40.0149073,16.7349854 38.7434927,16.7349854 C38.2260293,16.7349854 37.7694439,16.9176195 37.4900293,17.2360585 C37.3292488,17.4194732 37.2387122,17.6380098 37.2270049,17.8651317 C37.0631024,17.8214244 36.8874927,17.8003512 36.6947122,17.8003512 C36.0508098,17.8003512 35.456078,18.2101073 34.8761756,19.0538146 C33.8552976,20.5531317 32.7961756,22.6791805 32.1546146,24.7029854 C30.7333463,27.2403512 29.1653463,29.3765463 27.8197854,30.1304976 C27.8588098,29.0908878 28.934322,26.9476683 29.889639,25.043278 L30.1347122,24.5539122 C31.5770537,21.6372293 32.2779317,19.8062049 32.2779317,18.9554732 C32.2779317,17.6067902 30.8355902,17.1174244 29.8662244,17.1174244 C28.452761,17.1174244 26.9987122,19.4081561 25.4814439,22.2670829 C26.1105171,20.6780098 26.6232976,19.2434732 26.6232976,18.5457171 C26.6232976,17.2579122 25.3276878,16.7896195 24.4566634,16.7896195 C23.0752,16.7896195 21.7194927,19.2153756 20.0156878,22.3201561 C20.708761,20.6366439 21.1317854,19.4206439 21.1317854,18.8469854 C21.1317854,17.8698146 20.5315902,17.3086439 19.4849561,17.3086439 C19.1626146,17.3086439 18.8309073,17.3414244 18.4796878,17.3757659 C18.054322,17.4171317 17.6156878,17.4584976 17.1661268,17.4452293 L17.0912,17.4428878 L17.057639,17.5100098 C16.9952,17.6356683 16.9632,17.7636683 16.9632,17.8908878 C16.9632,18.1281561 17.0779317,18.5269854 17.8459317,18.5269854 C18.1347122,18.5269854 18.496078,18.4692293 18.8792976,18.3630829 C18.5998829,19.3457171 18.0753951,20.5726439 17.5212488,21.8651317 C17.1232,22.7954732 16.7118829,23.7578146 16.3427122,24.7334244 C15.5333463,26.867278 14.6685659,29.4194732 14.6685659,30.1843512 C14.6685659,31.159961 15.4030049,31.284839 16.0422244,31.284839 C16.1507122,31.284839 16.2654439,31.2785951 16.384078,31.2715707 C16.5042732,31.2645463 16.6283707,31.257522 16.7524683,31.257522 L16.8359805,31.257522 L16.8632976,31.1794732 C18.2775415,27.1388878 23.1072,18.5371317 24.1749073,18.0782049 C24.129639,18.7244488 23.5302244,20.0949854 22.8433951,21.6668878 C22.5397854,22.361522 22.2260293,23.0803512 21.9169561,23.8296195 C20.9062244,26.327961 19.8869073,29.2953756 19.8869073,30.2936195 C19.8869073,30.9234732 20.4972488,31.284839 21.5610537,31.284839 C21.7671024,31.284839 21.9848585,31.2661073 22.2088585,31.2286439 L22.276761,31.2169366 L22.3001756,31.1521561 C23.0065171,29.1587902 24.5573463,25.9868878 26.2517854,23.0717659 C28.0008585,20.0629854 29.1591024,18.5980098 29.5829073,18.4083512 C29.5196878,19.0865951 28.7313951,20.6491317 27.9009561,22.2983024 C27.6878829,22.7228878 27.4670049,23.1607415 27.2484683,23.6017171 C26.2385171,25.5982049 25.1598829,28.116839 25.1598829,29.2009366 C25.1598829,30.5340098 26.2455415,31.5306927 27.2164683,31.5306927 C28.6353951,31.5306927 30.2166634,29.7628878 31.5770537,27.6103024 C31.5708098,27.7289366 31.5505171,27.8577171 31.5505171,27.9716683 C31.5505171,30.1827902 32.6666146,31.5033756 34.5358829,31.5033756 C38.1331512,31.5033756 41.2660293,23.8054244 41.7405659,20.2877659 C42.4258341,20.3673756 42.9706146,20.4071805 43.4084683,20.4103024 C41.9996878,22.7946927 41.0568585,25.7706927 41.0568585,27.9716683 C41.0568585,30.4114732 42.7614439,31.5033756 44.4519805,31.5033756 C45.6032,31.5033756 46.8238829,30.739278 47.7191024,29.4569366 C47.7729561,29.3757659 47.8338341,29.2875707 47.8954927,29.1993756 C47.9415415,29.1322537 47.9883707,29.0651317 48.0312976,29.0003512 C48.160078,29.017522 48.3029073,29.017522 48.4410537,29.017522 C49.1965659,29.017522 49.9068098,28.691278 50.561639,28.1613268 C50.4609561,28.6069854 50.3985171,28.9878634 50.3985171,29.2555707 C50.3985171,30.4887415 51.5029073,31.5306927 52.8102244,31.5306927 C53.8592,31.5306927 55.076761,30.2038634 56.2030049,28.4516683 C55.9657366,29.2602537 55.8072976,29.9338146 55.8072976,30.2936195 C55.8072976,31.3090341 56.9288585,31.3714732 57.830322,31.4214244 L57.9114927,31.4261073 L57.9442732,31.3511805 C59.4326634,27.9318634 64.3146146,18.9859122 65.7569561,18.4426927 C65.729639,19.1560585 64.8913951,20.724839 64.0078829,22.3810341 C63.7955902,22.7783024 63.5770537,23.187278 63.3608585,23.6017171 C62.0917854,26.0532293 61.2714927,28.2510829 61.2714927,29.2009366 C61.2714927,30.5340098 62.3571512,31.5306927 63.328078,31.5306927 C65.0545171,31.5306927 67.2149073,28.3564488 67.2149073,27.1521561 C67.2149073,27.0046439 67.172761,26.8922537 67.0900293,26.8196683 C67.0010537,26.740839 66.8722732,26.7150829 66.7013463,26.7353756 L66.6428098,26.7424 L66.6139317,26.7939122 C65.728078,28.3681561 64.8500293,29.4124488 64.0008585,29.9025951 C64.1148098,28.8700098 65.1957854,26.6823024 66.1565659,24.7373268 L66.246322,24.5546927 Z" id="Fill-4" fill="#FFFFFF"></path>
                <path d="M68.0721951,13.990478 L68.0089756,13.990478 L68.0089756,13.4136976 L68.0721951,13.4136976 C68.2501463,13.4136976 68.4600976,13.4347707 68.4600976,13.7079415 C68.4600976,13.9694049 68.2501463,13.990478 68.0721951,13.990478 M68.9947317,13.6657951 C68.9947317,13.2466732 68.6903415,13.0265756 68.2821463,13.0265756 L67.5164878,13.0265756 L67.5164878,15.1955512 L68.0089756,15.1955512 L68.0089756,14.3362341 L68.6692683,15.1955512 L69.3194146,15.1955512 L68.5545366,14.2940878 C68.816,14.2004293 68.9947317,14.0006244 68.9947317,13.6657951" id="Fill-6" fill="#FFFFFF"></path>
                <path d="M68.2293073,15.8350829 C67.2966244,15.8350829 66.5208195,15.0702049 66.5208195,14.1265951 C66.5208195,13.172839 67.2966244,12.3978146 68.2293073,12.3978146 C69.1932098,12.3978146 69.9588683,13.172839 69.9588683,14.1265951 C69.9588683,15.0702049 69.1932098,15.8350829 68.2293073,15.8350829 M68.2293073,11.7687415 C66.9508683,11.7687415 65.8925268,12.8270829 65.8925268,14.1265951 C65.8925268,15.415961 66.9508683,16.4641561 68.2293073,16.4641561 C69.5397463,16.4641561 70.587161,15.415961 70.587161,14.1265951 C70.587161,12.8270829 69.5397463,11.7687415 68.2293073,11.7687415" id="Fill-8" fill="#FFFFFF"></path>
            </g>
        </g>
    </g>
</svg>